<svg xmlns="http://www.w3.org/2000/svg" xmlns:xlink="http://www.w3.org/1999/xlink" width="500" zoomAndPan="magnify" viewBox="0 0 375 374.999991" height="500" preserveAspectRatio="xMidYMid meet" version="1.0"><defs><g/><clipPath id="id1"><path d="M 119.308594 140 L 188 140 L 188 200 L 119.308594 200 Z M 119.308594 140 " clip-rule="nonzero"/></clipPath><clipPath id="id2"><path d="M 187 108.519531 L 255.808594 108.519531 L 255.808594 169 L 187 169 Z M 187 108.519531 " clip-rule="nonzero"/></clipPath></defs><rect x="-37.5" width="450" fill="#ffffff" y="-37.499999" height="449.999989" fill-opacity="1"/><rect x="-37.5" width="450" fill="#ffffff" y="-37.499999" height="449.999989" fill-opacity="1"/><rect x="-37.5" width="450" fill="#0d121f" y="-37.499999" height="449.999989" fill-opacity="1"/><g clip-path="url(#id1)"><path fill="#4a46eb" d="M 165.269531 182.492188 L 165.269531 190.777344 L 127.644531 173.351562 L 127.644531 166.628906 L 165.269531 149.203125 L 165.269531 157.488281 L 136.816406 169.910156 L 136.816406 170.066406 Z M 187.617188 140 L 124.691406 140 C 121.722656 140 119.3125 142.402344 119.3125 145.363281 L 119.3125 194.617188 C 119.3125 197.578125 121.722656 199.980469 124.691406 199.980469 L 170.148438 199.980469 L 187.617188 140 " fill-opacity="1" fill-rule="nonzero"/></g><g clip-path="url(#id2)"><path fill="#4a46eb" d="M 247.488281 142.132812 L 209.863281 159.324219 L 209.863281 151.039062 L 238.945312 138.613281 L 238.945312 138.457031 L 209.863281 126.035156 L 209.863281 117.75 L 247.488281 134.941406 Z M 205.085938 108.546875 L 187.617188 168.527344 L 250.4375 168.527344 C 253.410156 168.527344 255.816406 166.125 255.816406 163.164062 L 255.816406 113.910156 C 255.816406 110.949219 253.410156 108.546875 250.4375 108.546875 L 205.085938 108.546875 " fill-opacity="1" fill-rule="nonzero"/></g><g fill="#ffffff" fill-opacity="1"><g transform="translate(109.98003, 240.534858)"><g><path d="M 15.015625 0 L 11.421875 -5.9375 C 11.234375 -5.914062 10.9375 -5.90625 10.53125 -5.90625 L 5.875 -5.90625 L 5.875 0 L 2.578125 0 L 2.578125 -19.59375 L 10.53125 -19.59375 C 13.03125 -19.59375 14.96875 -19.007812 16.34375 -17.84375 C 17.726562 -16.675781 18.421875 -15.03125 18.421875 -12.90625 C 18.421875 -11.34375 18.070312 -10.019531 17.375 -8.9375 C 16.675781 -7.851562 15.671875 -7.054688 14.359375 -6.546875 L 18.765625 0 Z M 5.875 -8.875 L 10.53125 -8.875 C 13.695312 -8.875 15.28125 -10.191406 15.28125 -12.828125 C 15.28125 -15.359375 13.695312 -16.625 10.53125 -16.625 L 5.875 -16.625 Z M 5.875 -8.875 "/></g></g></g><g fill="#ffffff" fill-opacity="1"><g transform="translate(131.453287, 240.534858)"><g><path d="M 16.578125 -16.625 L 5.875 -16.625 L 5.875 -11.34375 L 15.453125 -11.34375 L 15.453125 -8.375 L 5.875 -8.375 L 5.875 -2.96875 L 16.90625 -2.96875 L 16.90625 0 L 2.578125 0 L 2.578125 -19.59375 L 16.578125 -19.59375 Z M 16.578125 -16.625 "/></g></g></g><g fill="#ffffff" fill-opacity="1"><g transform="translate(151.050799, 240.534858)"><g><path d="M 19.578125 0 L 16.328125 0 L 5.875 -14.0625 L 5.875 0 L 2.578125 0 L 2.578125 -19.59375 L 5.828125 -19.59375 L 16.328125 -5.515625 L 16.328125 -19.59375 L 19.578125 -19.59375 Z M 19.578125 0 "/></g></g></g><g fill="#ffffff" fill-opacity="1"><g transform="translate(174.455782, 240.534858)"><g><path d="M 2.578125 -19.59375 L 10.609375 -19.59375 C 13.546875 -19.59375 15.96875 -18.671875 17.875 -16.828125 C 19.789062 -14.984375 20.75 -12.640625 20.75 -9.796875 C 20.75 -6.960938 19.785156 -4.617188 17.859375 -2.765625 C 15.941406 -0.921875 13.5 0 10.53125 0 L 2.578125 0 Z M 5.875 -16.625 L 5.875 -2.96875 L 10.703125 -2.96875 C 12.617188 -2.96875 14.21875 -3.601562 15.5 -4.875 C 16.78125 -6.15625 17.421875 -7.785156 17.421875 -9.765625 C 17.421875 -11.742188 16.757812 -13.378906 15.4375 -14.671875 C 14.125 -15.972656 12.5 -16.625 10.5625 -16.625 Z M 5.875 -16.625 "/></g></g></g><g fill="#ffffff" fill-opacity="1"><g transform="translate(197.38483, 240.534858)"><g><path d="M 5.875 0 L 2.578125 0 L 2.578125 -19.59375 L 5.875 -19.59375 Z M 5.875 0 "/></g></g></g><g fill="#ffffff" fill-opacity="1"><g transform="translate(207.071687, 240.534858)"><g><path d="M 19.578125 0 L 16.328125 0 L 5.875 -14.0625 L 5.875 0 L 2.578125 0 L 2.578125 -19.59375 L 5.828125 -19.59375 L 16.328125 -5.515625 L 16.328125 -19.59375 L 19.578125 -19.59375 Z M 19.578125 0 "/></g></g></g><g fill="#ffffff" fill-opacity="1"><g transform="translate(230.476673, 240.534858)"><g><path d="M 16.578125 -16.625 L 5.875 -16.625 L 5.875 -11.34375 L 15.453125 -11.34375 L 15.453125 -8.375 L 5.875 -8.375 L 5.875 -2.96875 L 16.90625 -2.96875 L 16.90625 0 L 2.578125 0 L 2.578125 -19.59375 L 16.578125 -19.59375 Z M 16.578125 -16.625 "/></g></g></g><g fill="#ffffff" fill-opacity="1"><g transform="translate(250.074187, 240.534858)"><g><path d="M 5.875 -3 L 14.359375 -3 L 14.359375 0 L 2.578125 0 L 2.578125 -19.59375 L 5.875 -19.59375 Z M 5.875 -3 "/></g></g></g></svg>