<svg xmlns="http://www.w3.org/2000/svg" xmlns:xlink="http://www.w3.org/1999/xlink" width="500" zoomAndPan="magnify" viewBox="0 0 375 374.999991" height="500" preserveAspectRatio="xMidYMid meet" version="1.0"><defs><g/><clipPath id="id1"><path d="M 119.308594 141 L 188 141 L 188 201.671875 L 119.308594 201.671875 Z M 119.308594 141 " clip-rule="nonzero"/></clipPath><clipPath id="id2"><path d="M 187 110.171875 L 255.808594 110.171875 L 255.808594 171 L 187 171 Z M 187 110.171875 " clip-rule="nonzero"/></clipPath></defs><rect x="-37.5" width="450" fill="#ffffff" y="-37.499999" height="449.999989" fill-opacity="1"/><rect x="-37.5" width="450" fill="#ffffff" y="-37.499999" height="449.999989" fill-opacity="1"/><rect x="-37.5" width="450" fill="#121826" y="-37.499999" height="449.999989" fill-opacity="1"/><g clip-path="url(#id1)"><path fill="#4a46eb" d="M 165.269531 184.144531 L 165.269531 192.425781 L 127.644531 175.003906 L 127.644531 168.28125 L 165.269531 150.855469 L 165.269531 159.140625 L 136.816406 171.5625 L 136.816406 171.71875 Z M 187.617188 141.652344 L 124.691406 141.652344 C 121.722656 141.652344 119.3125 144.054688 119.3125 147.015625 L 119.3125 196.269531 C 119.3125 199.230469 121.722656 201.632812 124.691406 201.632812 L 170.148438 201.632812 L 187.617188 141.652344 " fill-opacity="1" fill-rule="nonzero"/></g><g clip-path="url(#id2)"><path fill="#4a46eb" d="M 247.488281 143.785156 L 209.863281 160.972656 L 209.863281 152.691406 L 238.945312 140.265625 L 238.945312 140.109375 L 209.863281 127.683594 L 209.863281 119.402344 L 247.488281 136.59375 Z M 205.085938 110.199219 L 187.617188 170.179688 L 250.4375 170.179688 C 253.410156 170.179688 255.816406 167.777344 255.816406 164.816406 L 255.816406 115.5625 C 255.816406 112.601562 253.410156 110.199219 250.4375 110.199219 L 205.085938 110.199219 " fill-opacity="1" fill-rule="nonzero"/></g><g fill="#ffffff" fill-opacity="1"><g transform="translate(74.776908, 240.534858)"><g><path d="M 15.015625 0 L 11.421875 -5.9375 C 11.234375 -5.914062 10.9375 -5.90625 10.53125 -5.90625 L 5.875 -5.90625 L 5.875 0 L 2.578125 0 L 2.578125 -19.59375 L 10.53125 -19.59375 C 13.03125 -19.59375 14.96875 -19.007812 16.34375 -17.84375 C 17.726562 -16.675781 18.421875 -15.03125 18.421875 -12.90625 C 18.421875 -11.34375 18.070312 -10.019531 17.375 -8.9375 C 16.675781 -7.851562 15.671875 -7.054688 14.359375 -6.546875 L 18.765625 0 Z M 5.875 -8.875 L 10.53125 -8.875 C 13.695312 -8.875 15.28125 -10.191406 15.28125 -12.828125 C 15.28125 -15.359375 13.695312 -16.625 10.53125 -16.625 L 5.875 -16.625 Z M 5.875 -8.875 "/></g></g></g><g fill="#ffffff" fill-opacity="1"><g transform="translate(96.250164, 240.534858)"><g><path d="M 16.578125 -16.625 L 5.875 -16.625 L 5.875 -11.34375 L 15.453125 -11.34375 L 15.453125 -8.375 L 5.875 -8.375 L 5.875 -2.96875 L 16.90625 -2.96875 L 16.90625 0 L 2.578125 0 L 2.578125 -19.59375 L 16.578125 -19.59375 Z M 16.578125 -16.625 "/></g></g></g><g fill="#ffffff" fill-opacity="1"><g transform="translate(115.847676, 240.534858)"><g><path d="M 19.578125 0 L 16.328125 0 L 5.875 -14.0625 L 5.875 0 L 2.578125 0 L 2.578125 -19.59375 L 5.828125 -19.59375 L 16.328125 -5.515625 L 16.328125 -19.59375 L 19.578125 -19.59375 Z M 19.578125 0 "/></g></g></g><g fill="#ffffff" fill-opacity="1"><g transform="translate(139.252659, 240.534858)"><g><path d="M 2.578125 -19.59375 L 10.609375 -19.59375 C 13.546875 -19.59375 15.96875 -18.671875 17.875 -16.828125 C 19.789062 -14.984375 20.75 -12.640625 20.75 -9.796875 C 20.75 -6.960938 19.785156 -4.617188 17.859375 -2.765625 C 15.941406 -0.921875 13.5 0 10.53125 0 L 2.578125 0 Z M 5.875 -16.625 L 5.875 -2.96875 L 10.703125 -2.96875 C 12.617188 -2.96875 14.21875 -3.601562 15.5 -4.875 C 16.78125 -6.15625 17.421875 -7.785156 17.421875 -9.765625 C 17.421875 -11.742188 16.757812 -13.378906 15.4375 -14.671875 C 14.125 -15.972656 12.5 -16.625 10.5625 -16.625 Z M 5.875 -16.625 "/></g></g></g><g fill="#ffffff" fill-opacity="1"><g transform="translate(162.181708, 240.534858)"><g><path d="M 5.875 0 L 2.578125 0 L 2.578125 -19.59375 L 5.875 -19.59375 Z M 5.875 0 "/></g></g></g><g fill="#ffffff" fill-opacity="1"><g transform="translate(171.868564, 240.534858)"><g><path d="M 19.578125 0 L 16.328125 0 L 5.875 -14.0625 L 5.875 0 L 2.578125 0 L 2.578125 -19.59375 L 5.828125 -19.59375 L 16.328125 -5.515625 L 16.328125 -19.59375 L 19.578125 -19.59375 Z M 19.578125 0 "/></g></g></g><g fill="#ffffff" fill-opacity="1"><g transform="translate(195.27355, 240.534858)"><g><path d="M 16.578125 -16.625 L 5.875 -16.625 L 5.875 -11.34375 L 15.453125 -11.34375 L 15.453125 -8.375 L 5.875 -8.375 L 5.875 -2.96875 L 16.90625 -2.96875 L 16.90625 0 L 2.578125 0 L 2.578125 -19.59375 L 16.578125 -19.59375 Z M 16.578125 -16.625 "/></g></g></g><g fill="#ffffff" fill-opacity="1"><g transform="translate(214.871064, 240.534858)"><g><path d="M 5.875 -3 L 14.359375 -3 L 14.359375 0 L 2.578125 0 L 2.578125 -19.59375 L 5.875 -19.59375 Z M 5.875 -3 "/></g></g></g><g fill="#ffffff" fill-opacity="1"><g transform="translate(231.053043, 240.534858)"><g><path d="M 1.78125 -2.921875 C 2.125 -3.265625 2.546875 -3.4375 3.046875 -3.4375 C 3.554688 -3.4375 3.976562 -3.265625 4.3125 -2.921875 C 4.644531 -2.578125 4.8125 -2.144531 4.8125 -1.625 C 4.8125 -1.082031 4.644531 -0.632812 4.3125 -0.28125 C 3.976562 0.0703125 3.554688 0.25 3.046875 0.25 C 2.546875 0.25 2.125 0.0703125 1.78125 -0.28125 C 1.445312 -0.632812 1.28125 -1.082031 1.28125 -1.625 C 1.28125 -2.144531 1.445312 -2.578125 1.78125 -2.921875 Z M 1.78125 -2.921875 "/></g></g></g><g fill="#ffffff" fill-opacity="1"><g transform="translate(238.388225, 240.534858)"><g><path d="M 2.578125 -19.59375 L 10.609375 -19.59375 C 13.546875 -19.59375 15.96875 -18.671875 17.875 -16.828125 C 19.789062 -14.984375 20.75 -12.640625 20.75 -9.796875 C 20.75 -6.960938 19.785156 -4.617188 17.859375 -2.765625 C 15.941406 -0.921875 13.5 0 10.53125 0 L 2.578125 0 Z M 5.875 -16.625 L 5.875 -2.96875 L 10.703125 -2.96875 C 12.617188 -2.96875 14.21875 -3.601562 15.5 -4.875 C 16.78125 -6.15625 17.421875 -7.785156 17.421875 -9.765625 C 17.421875 -11.742188 16.757812 -13.378906 15.4375 -14.671875 C 14.125 -15.972656 12.5 -16.625 10.5625 -16.625 Z M 5.875 -16.625 "/></g></g></g><g fill="#ffffff" fill-opacity="1"><g transform="translate(261.317274, 240.534858)"><g><path d="M 16.578125 -16.625 L 5.875 -16.625 L 5.875 -11.34375 L 15.453125 -11.34375 L 15.453125 -8.375 L 5.875 -8.375 L 5.875 -2.96875 L 16.90625 -2.96875 L 16.90625 0 L 2.578125 0 L 2.578125 -19.59375 L 16.578125 -19.59375 Z M 16.578125 -16.625 "/></g></g></g><g fill="#ffffff" fill-opacity="1"><g transform="translate(280.914788, 240.534858)"><g><path d="M 11.3125 0 L 7.890625 0 L 0.078125 -19.59375 L 3.640625 -19.59375 L 9.6875 -3.671875 L 15.796875 -19.59375 L 19.234375 -19.59375 Z M 11.3125 0 "/></g></g></g></svg>